<?xml version="1.0" standalone="no"?>
<!DOCTYPE svg PUBLIC "-//W3C//DTD SVG 20010904//EN"
 "http://www.w3.org/TR/2001/REC-SVG-20010904/DTD/svg10.dtd">
<svg version="1.0" xmlns="http://www.w3.org/2000/svg"
 width="512.000000pt" height="512.000000pt" viewBox="0 0 512.000000 512.000000"
 preserveAspectRatio="xMidYMid meet">
<metadata>
Created by potrace 1.11, written by Peter Selinger 2001-2013
</metadata>
<g transform="translate(0.000000,512.000000) scale(0.100000,-0.100000)"
fill="#000000" stroke="none">
<path d="M2250 5109 c-685 -27 -1378 -160 -1834 -349 l-77 -32 4 -1427 c4
-1557 1 -1466 62 -1667 60 -196 151 -366 287 -535 148 -184 318 -323 573 -468
260 -148 1240 -621 1287 -621 21 0 877 389 1074 488 481 242 807 532 974 867
89 179 128 317 150 525 6 57 10 639 10 1466 l0 1372 -82 35 c-174 73 -447 155
-708 211 -356 77 -708 118 -1150 136 -267 11 -282 11 -570 -1z m1003 -410 c50
-14 111 -69 124 -113 6 -19 8 -37 5 -40 -3 -3 -23 -6 -44 -6 -32 0 -45 7 -78
41 -37 39 -42 41 -80 36 -22 -3 -48 -11 -56 -18 -65 -53 -61 -223 5 -259 11
-5 40 -10 65 -10 36 0 48 5 65 26 11 14 23 34 26 45 5 15 16 19 57 19 l51 0
-7 -32 c-18 -91 -94 -148 -197 -148 -73 0 -116 18 -163 70 -43 48 -60 106 -53
187 12 151 138 242 280 202z m-1865 -86 l3 -83 84 0 85 0 0 85 0 85 50 0 50 0
0 -225 0 -225 -50 0 -50 0 0 95 0 95 -85 0 -85 0 0 -95 0 -95 -55 0 -55 0 0
218 c0 120 3 222 7 226 4 4 28 6 53 4 l45 -3 3 -82z m460 -82 c3 -195 6 -201
87 -201 77 0 79 4 85 199 l5 166 50 0 50 0 3 -155 c3 -180 -7 -223 -66 -268
-33 -25 -43 -27 -128 -27 -100 0 -124 10 -168 69 -19 25 -21 44 -24 192 -2 91
-1 172 2 180 4 11 18 14 53 12 l48 -3 3 -164z m692 124 l0 -45 -65 0 -65 0 0
-180 0 -180 -55 0 -55 0 0 180 0 180 -65 0 -65 0 0 38 c0 21 3 42 7 45 3 4 87
7 185 7 l178 0 0 -45z m380 0 l0 -45 -115 0 -115 0 0 -45 0 -44 108 -3 107 -3
-1 -35 0 -35 -107 -3 -107 -3 0 -49 0 -49 118 -3 117 -3 3 -42 3 -43 -175 0
-176 0 0 218 c0 120 3 222 7 225 3 4 80 7 170 7 l163 0 0 -45z m630 -40 l0
-85 90 0 90 0 0 85 0 85 50 0 50 0 0 -225 0 -225 -50 0 -49 0 -3 93 -3 92 -85
0 -85 0 -3 -92 -3 -93 -49 0 -50 0 0 225 0 225 50 0 50 0 0 -85z m-2190 -656
l0 -151 29 -29 c24 -23 38 -29 74 -29 88 0 106 41 107 238 l0 123 28 -3 27 -3
0 -155 c0 -173 -6 -192 -68 -230 -43 -26 -139 -27 -187 -2 -60 32 -70 66 -70
240 l0 152 30 0 30 0 0 -151z m718 119 c-2 -25 -8 -33 -23 -33 -15 0 -21 8
-23 33 -3 29 -1 32 23 32 24 0 26 -3 23 -32z m1230 1 c3 -21 -2 -27 -22 -31
-32 -6 -36 -2 -36 34 0 26 3 29 28 26 21 -2 28 -9 30 -29z m150 -36 c3 -38 6
-43 28 -43 19 0 24 -5 24 -25 0 -20 -5 -25 -25 -25 -25 0 -25 0 -25 -94 0 -90
1 -95 23 -98 16 -2 22 -10 22 -28 0 -23 -3 -25 -40 -23 -58 4 -65 20 -65 139
0 99 -1 103 -22 106 -15 2 -24 11 -26 26 -3 18 1 22 22 22 23 0 26 4 26 38 0
45 6 54 35 50 16 -2 21 -12 23 -45z m-1530 -68 c21 -25 22 -34 20 -148 -3
-114 -4 -122 -23 -122 -18 0 -20 8 -25 111 -3 73 -10 117 -19 128 -24 29 -89
16 -107 -21 -4 -10 -11 -63 -14 -118 -5 -92 -7 -100 -25 -100 -19 0 -20 8 -23
148 l-3 147 26 0 c17 0 25 -6 25 -17 0 -14 2 -15 18 -1 26 23 43 28 87 23 28
-2 47 -12 63 -30z m709 15 c41 -25 63 -59 70 -110 l6 -40 -105 0 c-58 0 -107
-3 -111 -6 -10 -10 14 -64 33 -74 34 -18 80 -12 104 15 26 28 66 34 66 10 0
-8 -13 -29 -28 -46 -24 -27 -37 -33 -83 -36 -93 -7 -150 48 -150 145 -1 57 11
90 42 119 49 45 106 54 156 23z m283 -10 c0 -25 -4 -30 -25 -30 -14 0 -37 -11
-50 -25 -23 -22 -25 -32 -25 -113 0 -93 -12 -121 -45 -108 -12 4 -15 30 -15
151 l0 145 25 0 c18 0 25 -5 25 -20 0 -18 2 -18 36 5 51 35 74 33 74 -5z m199
19 c29 -10 61 -52 61 -79 0 -19 -43 -10 -66 15 -27 29 -74 33 -99 9 -14 -15
-14 -18 0 -34 8 -9 40 -22 70 -29 29 -7 66 -21 80 -33 22 -17 26 -27 23 -61
-2 -34 -9 -45 -37 -64 -64 -43 -176 -22 -201 37 -7 16 -9 33 -6 38 8 14 56 2
56 -14 0 -32 96 -48 120 -19 22 27 7 48 -45 63 -28 7 -66 21 -85 30 -30 15
-35 23 -38 55 -4 44 10 64 53 83 37 16 73 17 114 3z m-1041 -146 c-3 -140 -4
-148 -23 -148 -19 0 -20 8 -23 148 l-3 147 26 0 26 0 -3 -147z m149 52 c17
-49 34 -99 38 -110 5 -15 17 10 44 90 34 101 40 110 64 113 15 2 27 -1 27 -6
0 -6 -22 -70 -49 -143 -49 -135 -67 -162 -97 -144 -15 10 -114 255 -114 283 0
9 10 12 28 10 24 -3 30 -11 59 -93z m1081 -52 l-3 -148 -25 0 -25 0 -3 148 -3
147 31 0 31 0 -3 -147z m297 130 c4 -10 17 -47 30 -83 49 -141 43 -139 84 -15
34 101 40 110 64 113 15 2 27 -1 27 -7 0 -13 -115 -312 -135 -350 -18 -35 -43
-51 -79 -51 -22 0 -26 5 -26 29 0 25 3 28 25 24 20 -4 27 1 41 30 17 36 18 36
-93 315 -3 8 5 12 25 12 19 0 32 -6 37 -17z m-740 -543 c577 -28 1067 -111
1497 -254 73 -24 159 -55 191 -70 l58 -25 -4 -638 c-3 -566 -5 -646 -21 -713
-69 -290 -170 -474 -376 -681 -189 -190 -396 -330 -714 -484 -283 -137 -326
-156 -331 -142 -8 25 -35 299 -35 355 0 49 6 68 36 118 70 117 84 189 42 218
-22 16 -23 15 -39 -35 -35 -107 -116 -197 -270 -299 -127 -84 -230 -115 -379
-115 -97 0 -120 3 -147 20 -18 10 -33 25 -33 32 0 16 -5 16 -31 3 -47 -26 9
-110 88 -129 92 -24 95 -27 193 -222 50 -99 90 -182 88 -183 -2 -2 -29 -15
-61 -29 l-58 -27 -182 82 c-295 131 -629 292 -821 394 -348 186 -486 282 -649
454 -189 199 -310 418 -375 680 l-25 105 -4 618 -4 617 48 21 c26 11 111 42
188 69 583 199 1382 296 2130 260z m148 -2764 c17 -17 72 -285 60 -296 -4 -5
-72 -38 -151 -73 l-142 -66 -15 22 c-8 12 -37 73 -66 136 -62 137 -61 155 16
185 28 11 95 39 150 62 111 47 127 50 148 30z"/>
<path d="M2526 3939 c-14 -11 -26 -28 -26 -37 0 -15 10 -17 75 -14 41 2 75 8
75 13 0 19 -50 59 -73 59 -13 0 -36 -9 -51 -21z"/>
<path d="M3274 3062 c-168 -123 -249 -328 -211 -535 20 -109 69 -214 179 -382
148 -226 184 -315 176 -440 -6 -96 -48 -183 -129 -269 -32 -35 -59 -66 -59
-69 0 -4 9 -11 19 -17 17 -8 30 -2 81 41 139 116 195 237 188 407 -5 122 -18
151 -166 374 -169 255 -212 352 -212 483 0 131 60 280 150 376 42 45 49 59 30
59 -4 0 -25 -13 -46 -28z"/>
<path d="M2798 2693 c-45 -47 -58 -74 -107 -212 -45 -128 -78 -187 -139 -253
-61 -65 -118 -100 -285 -172 -234 -102 -348 -192 -417 -332 -80 -163 -71 -322
27 -471 43 -66 136 -152 207 -193 48 -27 55 -34 46 -50 -26 -48 5 -112 72
-150 82 -46 295 -39 478 16 149 46 289 132 392 242 85 91 119 202 84 270 -14
26 -60 62 -81 62 -13 0 -3 -37 15 -53 70 -60 -62 -223 -272 -336 -157 -85
-443 -154 -562 -137 -58 9 -98 43 -89 75 5 21 9 22 88 15 102 -8 155 0 155 24
0 15 -15 20 -92 30 -197 24 -313 130 -373 337 -27 93 -18 215 23 298 45 92
126 164 250 223 318 152 304 144 378 218 61 62 75 82 103 156 18 47 46 137 62
200 18 68 42 135 59 163 48 77 37 91 -22 30z"/>
<path d="M2918 2223 c-7 -22 -13 -80 -13 -138 1 -90 4 -107 32 -170 45 -99 56
-152 52 -247 -5 -101 -40 -182 -119 -270 -57 -64 -52 -83 14 -44 128 75 219
264 201 419 -8 73 -26 125 -69 196 -47 78 -70 160 -63 233 6 69 -13 81 -35 21z"/>
<path d="M2633 2048 c-6 -7 -18 -36 -27 -65 -24 -72 -80 -131 -246 -258 -77
-59 -158 -128 -180 -152 -94 -107 -120 -226 -68 -313 41 -71 148 -137 148 -91
0 5 -14 33 -32 61 -23 38 -33 66 -36 109 -8 110 60 204 283 390 91 76 140 127
171 177 16 26 22 17 42 -57 19 -69 44 -87 50 -36 4 34 -24 181 -41 217 -14 28
-48 38 -64 18z"/>
</g>
</svg>
